name C:\Users\tom_v\My Drive\PostDoc\MusculoskeletalSpecialization\ResultsSprinting\Case_4\motion.mot
datacolumns 32
datarows 13
range 0.13462122 0.19923941
endheader 
time	pelvis_tilt	pelvis_list	pelvis_rotation	pelvis_tx	pelvis_ty	pelvis_tz	hip_flexion_r	hip_adduction_r	hip_rotation_r	knee_angle_r	ankle_angle_r	subtalar_angle_r	mtp_angle_r	hip_flexion_l	hip_adduction_l	hip_rotation_l	knee_angle_l	ankle_angle_l	subtalar_angle_l	mtp_angle_l	lumbar_extension	lumbar_bending	lumbar_rotation	arm_flex_r	arm_add_r	arm_rot_r	elbow_flex_r	arm_flex_l	arm_add_l	arm_rot_l	elbow_flex_l	
          0.13462122	        -16.47424043	          0.08920112	          2.93814861	          0.43906002	          0.92935736	          0.00196661	         24.93926327	          3.42387048	          3.75880661	        -34.08416867	         17.05158503	         -2.41541777	         15.75547750	         41.07668110	          0.68849330	         -3.08247099	        -50.07219579	         25.43231458	          4.79953772	          1.88467708	        -12.22155073	          0.00973637	          2.06002766	         25.04761437	         -1.12833229	          1.25404737	          5.79206750	         27.98974471	          0.45153847	         -1.78249499	          9.96929272	
          0.14000607	        -16.49690203	          0.13822690	          3.01746394	          0.45701068	          0.93126744	          0.00198489	         23.47753173	          3.21776190	          3.40330451	        -33.35367502	         15.95794828	         -2.00741115	         17.03206972	         41.98483013	          0.94542916	         -2.93571742	        -49.25084644	         25.38100753	          4.76813871	          1.75641514	        -12.19878191	         -0.25451441	          2.24006764	         25.05984551	         -1.23459035	          1.48705958	          5.30470866	         27.96751169	          0.60872852	         -1.92676842	         10.34521766	
          0.14539092	        -16.51863408	          0.18774944	          3.08789135	          0.47504356	          0.93319461	          0.00200205	         22.03969738	          3.00948744	          3.01709641	        -32.64520439	         14.71304113	         -1.59128239	         18.32703383	         42.83881088	          1.20129575	         -2.77655372	        -48.35710607	         25.28625162	          4.73841422	          1.63712122	        -12.16783504	         -0.52154968	          2.41160816	         25.05606290	         -1.33410444	          1.72673976	          4.83630361	         27.92641791	          0.75886339	         -2.05084079	         10.70298297	
          0.15077577	        -16.53913375	          0.23680124	          3.15105324	          0.49316431	          0.93511430	          0.00201605	         20.62344042	          2.80187627	          2.60855543	        -31.95711193	         13.33016330	         -1.17024489	         19.62926792	         43.63615522	          1.45405002	         -2.60587018	        -47.38987816	         25.15186356	          4.70914634	          1.52642928	        -12.12777293	         -0.78958406	          2.57448697	         25.03366784	         -1.42722969	          1.97010070	          4.39038757	         27.86653454	          0.90164869	         -2.15373853	         11.04107851	
          0.15616062	        -16.55805395	          0.28413582	          3.20740061	          0.51137312	          0.93699854	          0.00202533	         19.23283266	          2.59713587	          2.18413039	        -31.29856587	         11.82327912	         -0.74045061	         20.92764621	         44.37519172	          1.70153927	         -2.42286992	        -46.34927232	         24.98073076	          4.67905538	          1.42375075	        -12.07817336	         -1.05630727	          2.72974664	         24.99176133	         -1.51473499	          2.21436758	          3.96881752	         27.78911346	          1.03734351	         -2.23482054	         11.35744129	
          0.16154547	        -16.57527275	          0.32964399	          3.25747878	          0.52966163	          0.93881787	          0.00202708	         17.87810326	          2.39550452	          1.75295431	        -30.68756761	         10.20550180	         -0.29281096	         22.20927231	         45.05572851	          1.94174239	         -2.22923594	        -45.23691282	         24.77646603	          4.64712967	          1.32844174	        -12.02001848	         -1.32000150	          2.87656837	         24.93255827	         -1.59674699	          2.45795201	          3.57145245	         27.69607554	          1.16553969	         -2.29472150	         11.65150663	
          0.16693032	        -16.59081516	          0.37170735	          3.30113943	          0.54801413	          0.94054342	          0.00202157	         16.57409600	          2.19953503	          1.32603942	        -30.14827911	          8.48741180	          0.17556071	         23.45891633	         45.67768578	          2.17046281	         -2.02581062	        -44.05272184	         24.54381740	          4.61202044	          1.24001587	        -11.95560269	         -1.57745380	          3.01384084	         24.86068381	         -1.67300541	          2.69977116	          3.19712079	         27.58989935	          1.28537837	         -2.33484655	         11.92435158	
          0.17231517	        -16.60466237	          0.40881265	          3.33845791	          0.56641190	          0.94214755	          0.00201086	         15.33647709	          2.01173806	          0.91311377	        -29.70561119	          6.70108109	          0.66867382	         24.62045583	         46.24201495	          2.38409807	         -1.81270635	        -42.79916971	         24.28560776	          4.57219648	          1.15805188	        -11.88788845	         -1.82611666	          3.13985328	         24.78127637	         -1.74294662	          2.93832090	          2.84510663	         27.47381988	          1.39570727	         -2.35657027	         12.17701531	
          0.17770002	        -16.61686453	          0.43705567	          3.36777751	          0.58483188	          0.94360823	          0.00199618	         14.18674218	          1.83482366	          0.52086309	        -29.39543266	          4.95978008	          1.22238889	         25.49741493	         46.74751856	          2.57723026	         -1.58941985	        -41.47534884	         24.00380542	          4.52649204	          1.08215618	        -11.82068197	         -2.05977726	          3.25371613	         24.70159970	         -1.80676193	          3.17342175	          2.51334386	         27.35034181	          1.49602177	         -2.36266542	         12.41258742	
          0.18308486	        -16.62755436	          0.45514716	          3.38724696	          0.60325835	          0.94491372	          0.00197692	         13.14113316	          1.66813661	          0.15146251	        -29.23971109	          3.27713976	          1.83307929	         26.05288679	         47.18816009	          2.74767903	         -1.35539311	        -40.07257899	         23.69979853	          4.47384482	          1.01182162	        -11.75694853	         -2.27499591	          3.35463616	         24.62652047	         -1.86481831	          3.40380327	          2.20187705	         27.22061444	          1.58587804	         -2.35498675	         12.63399666	
          0.18846971	        -16.63683701	          0.46333834	          3.39510852	          0.62168401	          0.94605591	          0.00195209	         12.20724167	          1.50963371	         -0.19347394	        -29.24457227	          1.63309590	          2.48654991	         26.31211470	         47.55563960	          2.89448685	         -1.11051112	        -38.58024475	         23.37453911	          4.41321475	          0.94671115	        -11.69823133	         -2.47024901	          3.44185817	         24.55856293	         -1.91734664	          3.62740417	          1.91182308	         27.08439913	          1.66470051	         -2.33472075	         12.84367024	
          0.19385456	        -16.64456217	          0.46178682	          3.38924878	          0.64010281	          0.94702261	          0.00192024	         11.39406992	          1.35719098	         -0.51479220	        -29.42322146	          0.04194072	          3.17437915	         26.25240648	         47.84463332	          3.01650413	         -0.85506581	        -37.00083740	         23.02747789	          4.34386629	          0.88643104	        -11.64527882	         -2.64360003	          3.51477127	         24.50068211	         -1.96452754	          3.84261773	          1.64234622	         26.94116935	          1.73209941	         -2.30348935	         13.04338503	
          0.19923941	        -16.65036968	          0.45206088	          3.36753146	          0.65851196	          0.94779850	          0.00187911	         10.70840973	          1.20888295	         -0.81191862	        -29.78401789	         -1.48497024	          3.86721605	         25.84924540	         48.05273143	          3.11431409	         -0.58970278	        -35.35103321	         22.65709509	          4.26475530	          0.83080693	        -11.59787087	         -2.79438234	          3.57269609	         24.45545108	         -2.00630696	          4.04787786	          1.39141878	         26.78997962	          1.78764450	         -2.26266318	         13.23413870	
